Coordinates
version=1
nRows=18
nColumns=22
inDegrees=yes

Units are S.I. units (second, meters, Newtons, ...)
If the header above contains a line with 'inDegrees', this indicates whether rotational values are in degrees (yes) or radians (no).

endheader
time	pelvis_tilt	pelvis_list	pelvis_rotation	pelvis_tx	pelvis_ty	pelvis_tz	hip_flexion_r	hip_adduction_r	hip_rotation_r	knee_angle_r	ankle_angle_r	subtalar_angle_r	hip_flexion_l	hip_adduction_l	hip_rotation_l	knee_angle_l	ankle_angle_l	subtalar_angle_l	lumbar_extension	lumbar_bending	lumbar_rotation
      2.64000000	     -6.23064798	     -4.64072253	     -0.18786655	      0.56639908	      0.93413289	     -0.26333634	      5.69243323	      4.86071257	      4.90466060	    -42.58105168	      4.18487830	      8.99201794	     28.00262296	     -3.80387272	     -1.97983571	    -28.54336737	      4.57819450	     -4.07051242	     -6.17003393	      0.73085291	      3.59313368
      2.65000000	     -6.31508241	     -4.53634428	     -0.42556781	      0.55868592	      0.93325105	     -0.26111420	      5.04246526	      4.84514668	      5.08381493	    -41.09367721	      4.76490549	      8.89622054	     28.54825012	     -3.90990209	     -2.10660102	    -28.46877164	      4.01207347	     -4.00351778	     -6.20314829	      0.61013832	      3.92185282
      2.66000000	     -6.37479703	     -4.41995324	     -0.67839361	      0.55080536	      0.93238650	     -0.25880702	      4.43572762	      4.82341609	      5.29184451	    -39.60279186	      5.48276417	      8.67527672	     29.05638492	     -4.02116658	     -2.25898379	    -28.36223069	      3.43918978	     -3.92438411	     -6.27544887	      0.48058649	      4.23128907
      2.67000000	     -6.42533809	     -4.30593308	     -0.94759411	      0.54274359	      0.93151776	     -0.25639195	      3.90535370	      4.80787388	      5.49539057	    -38.14824792	      6.33766909	      8.32819988	     29.54358151	     -4.15471196	     -2.43038398	    -28.22054388	      2.87608744	     -3.80586075	     -6.36857419	      0.35129062	      4.54848982
      2.68000000	     -6.45999799	     -4.20195028	     -1.21777689	      0.53451615	      0.93066354	     -0.25389720	      3.44996233	      4.80848706	      5.67406054	    -36.75705483	      7.27773253	      7.77537575	     30.00234046	     -4.30654141	     -2.59046244	    -28.04481402	      2.32662576	     -3.62616315	     -6.48915987	      0.23282318	      4.85838551
      2.69000000	     -6.50965752	     -4.09078645	     -1.52538387	      0.52613277	      0.92977130	     -0.25128210	      3.12246700	      4.81226364	      5.86875962	    -35.48649290	      8.36327316	      7.34476164	     30.45620678	     -4.48069264	     -2.79962488	    -27.83394566	      1.89002576	     -3.41532902	     -6.59613757	      0.10547292	      5.19332595
      2.70000000	     -6.51885364	     -3.97717967	     -1.81153904	      0.51764774	      0.92897738	     -0.24861710	      2.82729176	      4.83285486	      6.05735634	    -34.28804290	      9.41323860	      6.55121930	     30.85609248	     -4.64956511	     -2.99209385	    -27.59799890	      1.52915459	     -3.07104055	     -6.75192988	     -0.02708858	      5.45982984
      2.71000000	     -6.53331964	     -3.89854303	     -2.09090942	      0.50903707	      0.92819889	     -0.24591339	      2.64812766	      4.89401664	      6.17112888	    -33.23030725	     10.50356289	      5.73604622	     31.23664224	     -4.84700789	     -3.13383581	    -27.31254982	      1.30478820	     -2.66352002	     -6.90529099	     -0.11639076	      5.72921663
      2.72000000	     -6.53315700	     -3.80850587	     -2.36879527	      0.50036155	      0.92749153	     -0.24318642	      2.54190396	      4.95500062	      6.27018186	    -32.29163350	     11.59614874	      4.93650301	     31.57896997	     -5.03128447	     -3.27872334	    -26.99791105	      1.26722160	     -2.18808274	     -7.07110926	     -0.21656545	      5.97405214
      2.73000000	     -6.52218030	     -3.73219009	     -2.62685606	      0.49163452	      0.92687444	     -0.24046681	      2.50795201	      5.03749041	      6.31536081	    -31.46749575	     12.65008577	      4.13030493	     31.87632644	     -5.21327192	     -3.38705616	    -26.62961642	      1.41830895	     -1.62838877	     -7.24714026	     -0.29729191	      6.18093504
      2.74000000	     -6.50192599	     -3.66863208	     -2.84919614	      0.48288551	      0.92634856	     -0.23780064	      2.53118711	      5.13687463	      6.29446309	    -30.73410059	     13.64400137	      3.34142256	     32.14105096	     -5.37907945	     -3.44237289	    -26.22671050	      1.78653583	     -1.00420496	     -7.42797681	     -0.35628607	      6.33853232
      2.75000000	     -6.47565663	     -3.60659905	     -3.03831211	      0.47413705	      0.92592884	     -0.23519830	      2.60587977	      5.23950298	      6.22405323	    -30.07948579	     14.56330426	      2.62772633	     32.36435838	     -5.51688889	     -3.44961620	    -25.77094497	      2.35680019	     -0.31147842	     -7.60842538	     -0.40608109	      6.44096558
      2.76000000	     -6.44433981	     -3.58019813	     -3.17232031	      0.46539302	      0.92560357	     -0.23269796	      2.72169262	      5.37503111	      6.06327943	    -29.48286210	     15.38177137	      1.96586159	     32.56806275	     -5.64784287	     -3.37218576	    -25.29220676	      3.09354726	      0.42449109	     -7.79164842	     -0.40465291	      6.49272424
      2.77000000	     -6.41518299	     -3.56657851	     -3.26210575	      0.45668375	      0.92537174	     -0.23028349	      2.87732453	      5.52168258	      5.85099162	    -28.93362126	     16.10692500	      1.39730135	     32.74999677	     -5.75901408	     -3.24488345	    -24.78254228	      3.95711254	      1.18645897	     -7.96534173	     -0.38430396	      6.49934152
      2.78000000	     -6.39105678	     -3.57073447	     -3.31319353	      0.44802529	      0.92521927	     -0.22796357	      3.07327629	      5.68122383	      5.59276200	    -28.42992656	     16.73273111	      0.92306180	     32.91595463	     -5.86082855	     -3.07685708	    -24.25428944	      4.89334101	      1.96122396	     -8.12654742	     -0.33459474	      6.46176733
      2.79000000	     -6.37360158	     -3.59089906	     -3.32737705	      0.43943406	      0.92513323	     -0.22573078	      3.30816826	      5.85454456	      5.30915861	    -27.97014620	     17.25665411	      0.54032897	     33.07254729	     -5.95743224	     -2.88488748	    -23.72602785	      5.83661981	      2.73121271	     -8.27257175	     -0.26411942	      6.39565522
      2.80000000	     -6.36257832	     -3.62803251	     -3.31602932	      0.43094033	      0.92510254	     -0.22357220	      3.57907613	      6.04046591	      5.00880447	    -27.55488746	     17.69042850	      0.23121617	     33.22483272	     -6.06088973	     -2.68808718	    -23.22628667	      6.73913203	      3.48811224	     -8.40103751	     -0.17207008	      6.30694621
      2.81000000	     -6.35488982	     -3.67750086	     -3.28951340	      0.42255594	      0.92511896	     -0.22148079	      3.88491486	      6.23717997	      4.71519505	    -27.19217982	     18.03509700	     -0.02476190	     33.37998955	     -6.17602107	     -2.51048939	    -22.79474027	      7.54515356	      4.21747926	     -8.51649093	     -0.06704495	      6.21039900
